<?xml version="1.0" encoding="utf-8"?>
<!-- Generator: Adobe Illustrator 25.0.1, SVG Export Plug-In . SVG Version: 6.00 Build 0)  -->
<svg version="1.1" id="Layer_1" xmlns="http://www.w3.org/2000/svg" xmlns:xlink="http://www.w3.org/1999/xlink" x="0px" y="0px"
	 viewBox="0 0 622.65 157.2" style="enable-background:new 0 0 622.65 157.2;" xml:space="preserve">
<style type="text/css">
	.st0{fill:url(#SVGID_1_);}
	.st1{fill:#4BA7BA;}
	.st2{fill:#58317E;}
	.st3{fill:url(#SVGID_2_);}
	.st4{fill:#3655A3;}
	.st5{fill:url(#SVGID_3_);}
	.st6{fill:url(#SVGID_4_);}
	.st7{fill:#49A09D;}
	.st8{fill:#5F2C82;}
	.st9{fill:#232020;}
	.st10{fill:#232020;stroke:#232020;stroke-width:2;stroke-miterlimit:10;}
	.st11{fill:#232020;stroke:#232020;stroke-width:0.8033;stroke-miterlimit:10;}
	.st12{fill:#FFFFFF;}
	.st13{fill:#002133;}
	.st14{fill:url(#SVGID_5_);}
	.st15{fill:url(#SVGID_6_);}
	.st16{fill-rule:evenodd;clip-rule:evenodd;fill:#49A09D;}
	.st17{fill-rule:evenodd;clip-rule:evenodd;fill:#5F2C82;}
	.st18{fill:#2F73B9;}
	.st19{fill:#3E90BF;}
	.st20{fill:#61BEB2;}
	.st21{fill:#FFFFFF;stroke:#FFFFFF;stroke-width:0.25;stroke-miterlimit:10;}
	.st22{fill:url(#SVGID_7_);}
	.st23{fill:url(#SVGID_8_);}
	.st24{fill:url(#SVGID_9_);}
	.st25{fill:url(#SVGID_10_);}
	.st26{fill:url(#SVGID_11_);}
	.st27{fill:url(#SVGID_12_);}
	.st28{fill:url(#SVGID_13_);}
	.st29{fill:url(#SVGID_14_);}
</style>
<rect y="0" class="st2" width="622.65" height="157.2"/>
<g>
	<g>
		<path class="st12" d="M40.3,40.21h9.27l23.45,34.58l23.45-34.58h9.27v76.36H93.53v-50.4L78.15,89.51H68.11l-15.6-23.34v50.4H40.3
			V40.21z"/>
		<path class="st12" d="M114.36,40.21h50.62v12.22h-38.4v19.85h27.82v12.22h-27.82v19.85h38.4v12.22h-50.72L114.36,40.21z"/>
		<path class="st12" d="M173.71,40.21h32.18c31.63,0,30.33,45.81,5.46,48l19.74,28.36h-14.18l-18.33-27.71h-12.65v27.71h-12.22
			V40.21z M204.8,76.64c15.82,0,14.73-24.22,1.09-24.22h-19.96v24.22H204.8z"/>
		<path class="st12" d="M236.33,95.29V61.91c0-12.11,9.82-22.14,22.15-22.14h10.25c12.54,0,22.14,9.05,22.14,22.91h-12.22
			c0-7.85-4.47-10.69-9.93-10.69h-10.25c-5.46,0-9.93,4.47-9.93,9.93v33.38c0,5.46,4.47,9.93,9.93,9.93h10.25
			c5.46,0,9.93-4.47,9.93-9.93v-6.54h-14.73V77.51h26.94v17.78c0,12.11-9.82,22.14-22.14,22.14h-10.25
			C245.93,117.44,236.33,107.07,236.33,95.29z"/>
		<path class="st12" d="M299.6,40.21h50.62v12.22h-38.4v19.85h27.82v12.22h-27.82v19.85h38.4v12.22h-50.72L299.6,40.21z"/>
		<path class="st12" d="M459.92,40.21h11.78v76.36h-11.78V40.21z"/>
		<g>
			<path class="st12" d="M481.11,98.81l0.08-25.04c0-9.05,7.26-16.48,16.48-16.48h11.83c8.89,0,16.48,7.26,16.48,16.23v25.45
				c0,9.05-7.42,16.4-16.48,16.4h-11.83C488.53,115.37,481.11,108.03,481.11,98.81z M509.49,106.23c4.08,0,7.42-3.26,7.42-7.42
				V73.93c0-4.08-3.35-7.5-7.42-7.5h-11.83c-4.08,0-7.42,3.26-7.42,7.42v24.96c0,4.16,3.26,7.42,7.42,7.42H509.49z"/>
			<path class="st12" d="M509.49,116.71h-11.83c-9.87,0-17.9-8.03-17.9-17.9l0.08-25.05c0-9.82,7.99-17.82,17.82-17.82h11.83
				c9.66,0,17.82,8.05,17.82,17.58v25.45C527.31,108.75,519.32,116.71,509.49,116.71z M482.45,98.81c0,8.39,6.83,15.21,15.22,15.21
				h11.83c8.34,0,15.13-6.75,15.13-15.05V73.53c0-8.07-6.93-14.89-15.13-14.89h-11.83c-8.34,0-15.13,6.79-15.13,15.13L482.45,98.81z
				 M509.49,107.58h-11.83c-4.91,0-8.77-3.85-8.77-8.77V73.85c0-4.83,3.93-8.77,8.77-8.77h11.83c4.83,0,8.77,3.97,8.77,8.85v24.88
				C518.26,103.64,514.33,107.58,509.49,107.58z M497.66,67.77c-3.35,0-6.08,2.73-6.08,6.08v24.96c0,3.41,2.67,6.08,6.08,6.08h11.83
				c3.35,0,6.08-2.73,6.08-6.08V73.93c0-3.34-2.78-6.16-6.08-6.16H497.66z"/>
		</g>
		<path class="st12" d="M549.63,52.42h-20.62V40.21h53.34v12.22h-20.62v64.14h-12.11V52.42z"/>
		<g>
			<g>
				<path class="st12" d="M412.6,49.85l-2.91,2.91l-2.4-2.4c-0.44-0.44-1.1-0.57-1.67-0.33c-0.57,0.24-0.95,0.8-0.95,1.42l0,7.33
					c0,0.85,0.69,1.53,1.53,1.53h7.33c0.41,0,0.8-0.17,1.08-0.45c0.14-0.14,0.25-0.31,0.33-0.5c0.24-0.57,0.11-1.23-0.33-1.67
					l-2.4-2.4l2.91-2.91c3.66-3.66,9.62-3.66,13.29,0c3.66,3.66,3.66,9.62,0,13.29L407.2,86.88c-0.7,0.7-0.7,1.83,0,2.53
					c0.7,0.7,1.83,0.7,2.53,0l21.21-21.21c5.06-5.06,5.06-13.29,0-18.35C425.89,44.79,417.66,44.79,412.6,49.85z"/>
				<path class="st12" d="M408.47,90.22c-0.56,0-1.08-0.22-1.47-0.61c-0.81-0.81-0.81-2.13,0-2.94l21.22-21.22
					c3.55-3.55,3.55-9.33,0-12.88c-1.72-1.72-4.01-2.66-6.44-2.66c-2.44,0-4.72,0.95-6.44,2.66l-2.71,2.71l2.19,2.19
					c0.52,0.52,0.68,1.3,0.39,1.99c-0.09,0.22-0.23,0.42-0.4,0.59c-0.34,0.34-0.8,0.53-1.28,0.53c0,0-0.01,0-0.01,0h-7.32
					c0,0,0,0,0,0c-0.48,0-0.94-0.19-1.28-0.53c-0.35-0.35-0.54-0.8-0.54-1.29v-7.32c0-0.74,0.44-1.4,1.12-1.68
					c0.69-0.29,1.46-0.12,1.99,0.39l2.19,2.2l2.71-2.71c5.17-5.17,13.58-5.17,18.75,0c2.5,2.5,3.88,5.83,3.88,9.38
					c0,3.55-1.38,6.88-3.88,9.38l-21.22,21.21C409.54,90.01,409.02,90.22,408.47,90.22C408.47,90.22,408.47,90.22,408.47,90.22z
					 M421.77,49.35c2.59,0,5.02,1.01,6.85,2.83c3.77,3.77,3.77,9.92,0,13.69L407.4,87.09c-0.58,0.58-0.58,1.54,0,2.12
					c0.28,0.28,0.66,0.44,1.06,0.44l0,0c0.4,0,0.78-0.16,1.06-0.44l21.22-21.22c2.39-2.39,3.71-5.58,3.71-8.97
					c0-3.39-1.32-6.58-3.71-8.97c-4.95-4.95-13-4.94-17.94,0l-3.12,3.12l-2.6-2.6c-0.36-0.36-0.89-0.46-1.36-0.27
					c-0.47,0.2-0.77,0.65-0.77,1.15v7.32c0,0.33,0.13,0.65,0.37,0.88c0.23,0.24,0.54,0.36,0.87,0.36c0,0,0,0,0,0h7.32
					c0,0,0,0,0.01,0c0.33,0,0.64-0.13,0.87-0.37c0.12-0.11,0.21-0.25,0.27-0.4c0.19-0.47,0.09-1-0.27-1.36l-2.6-2.6l3.12-3.12
					C416.75,50.35,419.18,49.35,421.77,49.35z"/>
			</g>
			<g>
				<path class="st12" d="M391.63,107.58l2.91-2.91l2.4,2.4c0.44,0.44,1.1,0.57,1.67,0.33c0.57-0.24,0.95-0.8,0.95-1.42l0-7.33
					c0-0.85-0.69-1.53-1.53-1.53h-7.33c-0.41,0-0.8,0.17-1.08,0.45c-0.14,0.14-0.25,0.31-0.33,0.5c-0.24,0.57-0.11,1.23,0.33,1.67
					l2.4,2.4l-2.91,2.91c-3.66,3.66-9.62,3.66-13.29,0c-3.66-3.66-3.66-9.62,0-13.29l21.21-21.21c0.7-0.7,0.7-1.83,0-2.53
					c-0.7-0.7-1.83-0.7-2.53,0l-21.21,21.21c-5.06,5.06-5.06,13.29,0,18.35C378.34,112.64,386.57,112.64,391.63,107.58z"/>
				<path class="st12" d="M382.45,111.66c-3.55,0-6.88-1.38-9.38-3.88c-5.17-5.17-5.17-13.58,0-18.75l21.22-21.22
					c0.81-0.8,2.13-0.81,2.94,0c0.39,0.39,0.61,0.92,0.61,1.47c0,0.55-0.22,1.07-0.61,1.47l-21.21,21.22
					c-3.55,3.55-3.55,9.33,0,12.88c3.55,3.55,9.33,3.55,12.88,0l2.71-2.71l-2.19-2.2c-0.52-0.52-0.68-1.3-0.39-1.98
					c0.1-0.23,0.23-0.43,0.4-0.59c0.34-0.34,0.8-0.53,1.29-0.53h7.32c1,0,1.82,0.82,1.82,1.82l0,7.32c0,0.74-0.44,1.4-1.13,1.68
					c-0.69,0.28-1.46,0.13-1.99-0.39l-2.19-2.19l-2.71,2.71C389.33,110.28,386,111.66,382.45,111.66z M395.76,67.78
					c-0.39,0-0.77,0.15-1.06,0.44l-21.21,21.22c-4.94,4.94-4.94,12.99,0,17.94c2.39,2.39,5.58,3.71,8.97,3.71
					c3.39,0,6.58-1.32,8.97-3.71l3.12-3.12l2.6,2.6c0.36,0.36,0.89,0.46,1.36,0.27c0.47-0.19,0.77-0.65,0.77-1.15l0-7.32
					c0-0.69-0.56-1.25-1.25-1.25h-7.32c-0.33,0-0.65,0.13-0.88,0.37c-0.12,0.11-0.21,0.25-0.27,0.41c-0.19,0.47-0.09,1,0.27,1.36
					l2.6,2.6l-3.12,3.12c-3.77,3.77-9.92,3.77-13.69,0c-3.77-3.78-3.77-9.92,0-13.69l21.22-21.22c0.28-0.28,0.44-0.66,0.44-1.06
					c0-0.4-0.16-0.78-0.44-1.06C396.53,67.93,396.14,67.78,395.76,67.78z"/>
			</g>
			<g>
				<path class="st12" d="M430.98,89.2l-2.91-2.91l2.4-2.4c0.44-0.44,0.57-1.1,0.33-1.67c-0.24-0.57-0.8-0.95-1.42-0.95l-7.33,0
					c-0.85,0-1.53,0.69-1.53,1.53v7.33c0,0.41,0.17,0.8,0.45,1.08c0.14,0.14,0.31,0.25,0.5,0.33c0.57,0.24,1.23,0.11,1.67-0.33
					l2.4-2.4l2.91,2.91c3.66,3.66,3.66,9.62,0,13.29c-3.66,3.66-9.62,3.66-13.29,0L393.95,83.8c-0.7-0.7-1.83-0.7-2.53,0
					c-0.7,0.7-0.7,1.83,0,2.53l21.21,21.21c5.06,5.06,13.29,5.06,18.35,0C436.03,102.49,436.03,94.26,430.98,89.2z"/>
				<path class="st12" d="M421.8,111.63c-3.55,0-6.88-1.38-9.38-3.88l-21.22-21.21c-0.39-0.39-0.61-0.91-0.61-1.47
					c0-0.56,0.22-1.08,0.61-1.47c0.81-0.81,2.13-0.81,2.94,0l21.22,21.22c3.54,3.55,9.32,3.56,12.88,0c3.55-3.55,3.55-9.33,0-12.88
					l-2.71-2.71l-2.19,2.19c-0.53,0.52-1.3,0.68-1.99,0.39c-0.22-0.09-0.42-0.23-0.59-0.4c-0.34-0.34-0.53-0.8-0.53-1.29V82.8
					c0-1,0.82-1.82,1.82-1.82h7.32c0,0,0,0,0.01,0c0.74,0,1.39,0.44,1.68,1.12s0.13,1.46-0.39,1.99l-2.19,2.19l2.71,2.71
					c5.17,5.17,5.17,13.58,0,18.75C428.68,110.25,425.35,111.63,421.8,111.63z M392.68,83.57c-0.39,0-0.77,0.15-1.06,0.44
					c-0.28,0.28-0.44,0.66-0.44,1.06c0,0.4,0.16,0.78,0.44,1.06l21.22,21.22c2.39,2.39,5.58,3.71,8.97,3.71
					c3.39,0,6.58-1.32,8.97-3.71c4.95-4.94,4.95-12.99,0-17.94l-3.12-3.12l2.6-2.6c0.36-0.36,0.47-0.89,0.27-1.36
					c-0.19-0.47-0.65-0.77-1.15-0.77c0,0,0,0-0.01,0h-7.32c-0.69,0-1.25,0.56-1.25,1.25v7.32c0,0.34,0.13,0.65,0.36,0.88
					c0.12,0.12,0.25,0.21,0.41,0.27c0.46,0.19,1,0.09,1.36-0.27l2.6-2.6l3.12,3.12c3.77,3.77,3.77,9.92,0,13.69
					c-3.78,3.77-9.92,3.77-13.69,0l-21.22-21.22C393.45,83.71,393.07,83.57,392.68,83.57z"/>
			</g>
			<g>
				<path class="st12" d="M373.5,67.97l2.91,2.91l-2.4,2.4c-0.44,0.44-0.57,1.1-0.33,1.67c0.24,0.57,0.8,0.95,1.42,0.95l7.33,0
					c0.85,0,1.53-0.69,1.53-1.53v-7.33c0-0.41-0.17-0.8-0.45-1.08c-0.14-0.14-0.31-0.25-0.5-0.33c-0.57-0.24-1.23-0.11-1.67,0.33
					l-2.4,2.4l-2.91-2.91c-3.66-3.66-3.66-9.62,0-13.29s9.62-3.66,13.29,0l21.21,21.21c0.7,0.7,1.83,0.7,2.53,0s0.7-1.83,0-2.53
					l-21.21-21.21c-5.06-5.06-13.29-5.06-18.35,0S368.45,62.92,373.5,67.97z"/>
				<path class="st12" d="M375.11,76.19c-0.74,0-1.4-0.44-1.68-1.13c-0.28-0.68-0.13-1.46,0.39-1.99l2.2-2.19l-2.71-2.71
					c-5.17-5.17-5.17-13.58,0-18.75c5.17-5.17,13.58-5.17,18.75,0l21.22,21.22c0.81,0.81,0.81,2.13,0,2.94
					c-0.81,0.81-2.13,0.81-2.94,0l-21.22-21.22c-3.55-3.56-9.33-3.55-12.88,0c-1.72,1.72-2.66,4.01-2.66,6.44
					c0,2.44,0.95,4.72,2.66,6.44l2.71,2.71l2.19-2.19c0.52-0.52,1.3-0.68,1.99-0.4c0.23,0.1,0.43,0.23,0.59,0.4
					c0.35,0.35,0.53,0.8,0.53,1.29v7.32c0,0.48-0.19,0.94-0.53,1.28c-0.35,0.35-0.8,0.54-1.29,0.54L375.11,76.19z M382.68,46.12
					c-3.25,0-6.5,1.23-8.97,3.71c-4.94,4.95-4.94,12.99,0,17.94l3.12,3.12l-2.6,2.6c-0.36,0.36-0.46,0.89-0.27,1.36
					c0.2,0.47,0.65,0.77,1.15,0.77l7.32,0c0.33,0,0.65-0.13,0.88-0.37c0.24-0.23,0.36-0.55,0.36-0.88v-7.32
					c0-0.33-0.13-0.65-0.37-0.88c-0.11-0.12-0.25-0.21-0.41-0.27c-0.46-0.19-1-0.09-1.36,0.27l-2.6,2.6l-3.12-3.12
					c-1.82-1.82-2.83-4.26-2.83-6.84s1.01-5.02,2.83-6.85c3.77-3.78,9.92-3.77,13.69,0l21.22,21.22c0.58,0.59,1.54,0.59,2.12,0
					c0.59-0.58,0.59-1.54,0-2.12l-21.21-21.22C389.18,47.36,385.93,46.12,382.68,46.12z"/>
			</g>
		</g>
	</g>
	<g>
		<path class="st12" d="M40.3,40.21h9.27l23.45,34.58l23.45-34.58h9.27v76.36H93.53v-50.4L78.15,89.51H68.11l-15.6-23.34v50.4H40.3
			V40.21z"/>
		<path class="st12" d="M114.36,40.21h50.62v12.22h-38.4v19.85h27.82v12.22h-27.82v19.85h38.4v12.22h-50.72L114.36,40.21z"/>
		<path class="st12" d="M173.71,40.21h32.18c31.63,0,30.33,45.81,5.46,48l19.74,28.36h-14.18l-18.33-27.71h-12.65v27.71h-12.22
			V40.21z M204.8,76.64c15.82,0,14.73-24.22,1.09-24.22h-19.96v24.22H204.8z"/>
		<path class="st12" d="M236.33,95.29V61.91c0-12.11,9.82-22.14,22.15-22.14h10.25c12.54,0,22.14,9.05,22.14,22.91h-12.22
			c0-7.85-4.47-10.69-9.93-10.69h-10.25c-5.46,0-9.93,4.47-9.93,9.93v33.38c0,5.46,4.47,9.93,9.93,9.93h10.25
			c5.46,0,9.93-4.47,9.93-9.93v-6.54h-14.73V77.51h26.94v17.78c0,12.11-9.82,22.14-22.14,22.14h-10.25
			C245.93,117.44,236.33,107.07,236.33,95.29z"/>
		<path class="st12" d="M299.6,40.21h50.62v12.22h-38.4v19.85h27.82v12.22h-27.82v19.85h38.4v12.22h-50.72L299.6,40.21z"/>
		<path class="st12" d="M459.92,40.21h11.78v76.36h-11.78V40.21z"/>
		<g>
			<path class="st12" d="M481.11,98.81l0.08-25.04c0-9.05,7.26-16.48,16.48-16.48h11.83c8.89,0,16.48,7.26,16.48,16.23v25.45
				c0,9.05-7.42,16.4-16.48,16.4h-11.83C488.53,115.37,481.11,108.03,481.11,98.81z M509.49,106.23c4.08,0,7.42-3.26,7.42-7.42
				V73.93c0-4.08-3.35-7.5-7.42-7.5h-11.83c-4.08,0-7.42,3.26-7.42,7.42v24.96c0,4.16,3.26,7.42,7.42,7.42H509.49z"/>
			<path class="st12" d="M509.49,116.71h-11.83c-9.87,0-17.9-8.03-17.9-17.9l0.08-25.05c0-9.82,7.99-17.82,17.82-17.82h11.83
				c9.66,0,17.82,8.05,17.82,17.58v25.45C527.31,108.75,519.32,116.71,509.49,116.71z M482.45,98.81c0,8.39,6.83,15.21,15.22,15.21
				h11.83c8.34,0,15.13-6.75,15.13-15.05V73.53c0-8.07-6.93-14.89-15.13-14.89h-11.83c-8.34,0-15.13,6.79-15.13,15.13L482.45,98.81z
				 M509.49,107.58h-11.83c-4.91,0-8.77-3.85-8.77-8.77V73.85c0-4.83,3.93-8.77,8.77-8.77h11.83c4.83,0,8.77,3.97,8.77,8.85v24.88
				C518.26,103.64,514.33,107.58,509.49,107.58z M497.66,67.77c-3.35,0-6.08,2.73-6.08,6.08v24.96c0,3.41,2.67,6.08,6.08,6.08h11.83
				c3.35,0,6.08-2.73,6.08-6.08V73.93c0-3.34-2.78-6.16-6.08-6.16H497.66z"/>
		</g>
		<path class="st12" d="M549.63,52.42h-20.62V40.21h53.34v12.22h-20.62v64.14h-12.11V52.42z"/>
		<g>
			<g>
				<path class="st12" d="M412.6,49.85l-2.91,2.91l-2.4-2.4c-0.44-0.44-1.1-0.57-1.67-0.33c-0.57,0.24-0.95,0.8-0.95,1.42l0,7.33
					c0,0.85,0.69,1.53,1.53,1.53h7.33c0.41,0,0.8-0.17,1.08-0.45c0.14-0.14,0.25-0.31,0.33-0.5c0.24-0.57,0.11-1.23-0.33-1.67
					l-2.4-2.4l2.91-2.91c3.66-3.66,9.62-3.66,13.29,0c3.66,3.66,3.66,9.62,0,13.29L407.2,86.88c-0.7,0.7-0.7,1.83,0,2.53
					c0.7,0.7,1.83,0.7,2.53,0l21.21-21.21c5.06-5.06,5.06-13.29,0-18.35C425.89,44.79,417.66,44.79,412.6,49.85z"/>
				<path class="st12" d="M408.47,90.22c-0.56,0-1.08-0.22-1.47-0.61c-0.81-0.81-0.81-2.13,0-2.94l21.22-21.22
					c3.55-3.55,3.55-9.33,0-12.88c-1.72-1.72-4.01-2.66-6.44-2.66c-2.44,0-4.72,0.95-6.44,2.66l-2.71,2.71l2.19,2.19
					c0.52,0.52,0.68,1.3,0.39,1.99c-0.09,0.22-0.23,0.42-0.4,0.59c-0.34,0.34-0.8,0.53-1.28,0.53c0,0-0.01,0-0.01,0h-7.32
					c0,0,0,0,0,0c-0.48,0-0.94-0.19-1.28-0.53c-0.35-0.35-0.54-0.8-0.54-1.29v-7.32c0-0.74,0.44-1.4,1.12-1.68
					c0.69-0.29,1.46-0.12,1.99,0.39l2.19,2.2l2.71-2.71c5.17-5.17,13.58-5.17,18.75,0c2.5,2.5,3.88,5.83,3.88,9.38
					c0,3.55-1.38,6.88-3.88,9.38l-21.22,21.21C409.54,90.01,409.02,90.22,408.47,90.22C408.47,90.22,408.47,90.22,408.47,90.22z
					 M421.77,49.35c2.59,0,5.02,1.01,6.85,2.83c3.77,3.77,3.77,9.92,0,13.69L407.4,87.09c-0.58,0.58-0.58,1.54,0,2.12
					c0.28,0.28,0.66,0.44,1.06,0.44l0,0c0.4,0,0.78-0.16,1.06-0.44l21.22-21.22c2.39-2.39,3.71-5.58,3.71-8.97
					c0-3.39-1.32-6.58-3.71-8.97c-4.95-4.95-13-4.94-17.94,0l-3.12,3.12l-2.6-2.6c-0.36-0.36-0.89-0.46-1.36-0.27
					c-0.47,0.2-0.77,0.65-0.77,1.15v7.32c0,0.33,0.13,0.65,0.37,0.88c0.23,0.24,0.54,0.36,0.87,0.36c0,0,0,0,0,0h7.32
					c0,0,0,0,0.01,0c0.33,0,0.64-0.13,0.87-0.37c0.12-0.11,0.21-0.25,0.27-0.4c0.19-0.47,0.09-1-0.27-1.36l-2.6-2.6l3.12-3.12
					C416.75,50.35,419.18,49.35,421.77,49.35z"/>
			</g>
			<g>
				<path class="st12" d="M391.63,107.58l2.91-2.91l2.4,2.4c0.44,0.44,1.1,0.57,1.67,0.33c0.57-0.24,0.95-0.8,0.95-1.42l0-7.33
					c0-0.85-0.69-1.53-1.53-1.53h-7.33c-0.41,0-0.8,0.17-1.08,0.45c-0.14,0.14-0.25,0.31-0.33,0.5c-0.24,0.57-0.11,1.23,0.33,1.67
					l2.4,2.4l-2.91,2.91c-3.66,3.66-9.62,3.66-13.29,0c-3.66-3.66-3.66-9.62,0-13.29l21.21-21.21c0.7-0.7,0.7-1.83,0-2.53
					c-0.7-0.7-1.83-0.7-2.53,0l-21.21,21.21c-5.06,5.06-5.06,13.29,0,18.35C378.34,112.64,386.57,112.64,391.63,107.58z"/>
				<path class="st12" d="M382.45,111.66c-3.55,0-6.88-1.38-9.38-3.88c-5.17-5.17-5.17-13.58,0-18.75l21.22-21.22
					c0.81-0.8,2.13-0.81,2.94,0c0.39,0.39,0.61,0.92,0.61,1.47c0,0.55-0.22,1.07-0.61,1.47l-21.21,21.22
					c-3.55,3.55-3.55,9.33,0,12.88c3.55,3.55,9.33,3.55,12.88,0l2.71-2.71l-2.19-2.2c-0.52-0.52-0.68-1.3-0.39-1.98
					c0.1-0.23,0.23-0.43,0.4-0.59c0.34-0.34,0.8-0.53,1.29-0.53h7.32c1,0,1.82,0.82,1.82,1.82l0,7.32c0,0.74-0.44,1.4-1.13,1.68
					c-0.69,0.28-1.46,0.13-1.99-0.39l-2.19-2.19l-2.71,2.71C389.33,110.28,386,111.66,382.45,111.66z M395.76,67.78
					c-0.39,0-0.77,0.15-1.06,0.44l-21.21,21.22c-4.94,4.94-4.94,12.99,0,17.94c2.39,2.39,5.58,3.71,8.97,3.71
					c3.39,0,6.58-1.32,8.97-3.71l3.12-3.12l2.6,2.6c0.36,0.36,0.89,0.46,1.36,0.27c0.47-0.19,0.77-0.65,0.77-1.15l0-7.32
					c0-0.69-0.56-1.25-1.25-1.25h-7.32c-0.33,0-0.65,0.13-0.88,0.37c-0.12,0.11-0.21,0.25-0.27,0.41c-0.19,0.47-0.09,1,0.27,1.36
					l2.6,2.6l-3.12,3.12c-3.77,3.77-9.92,3.77-13.69,0c-3.77-3.78-3.77-9.92,0-13.69l21.22-21.22c0.28-0.28,0.44-0.66,0.44-1.06
					c0-0.4-0.16-0.78-0.44-1.06C396.53,67.93,396.14,67.78,395.76,67.78z"/>
			</g>
			<g>
				<path class="st12" d="M430.98,89.2l-2.91-2.91l2.4-2.4c0.44-0.44,0.57-1.1,0.33-1.67c-0.24-0.57-0.8-0.95-1.42-0.95l-7.33,0
					c-0.85,0-1.53,0.69-1.53,1.53v7.33c0,0.41,0.17,0.8,0.45,1.08c0.14,0.14,0.31,0.25,0.5,0.33c0.57,0.24,1.23,0.11,1.67-0.33
					l2.4-2.4l2.91,2.91c3.66,3.66,3.66,9.62,0,13.29c-3.66,3.66-9.62,3.66-13.29,0L393.95,83.8c-0.7-0.7-1.83-0.7-2.53,0
					c-0.7,0.7-0.7,1.83,0,2.53l21.21,21.21c5.06,5.06,13.29,5.06,18.35,0C436.03,102.49,436.03,94.26,430.98,89.2z"/>
				<path class="st12" d="M421.8,111.63c-3.55,0-6.88-1.38-9.38-3.88l-21.22-21.21c-0.39-0.39-0.61-0.91-0.61-1.47
					c0-0.56,0.22-1.08,0.61-1.47c0.81-0.81,2.13-0.81,2.94,0l21.22,21.22c3.54,3.55,9.32,3.56,12.88,0c3.55-3.55,3.55-9.33,0-12.88
					l-2.71-2.71l-2.19,2.19c-0.53,0.52-1.3,0.68-1.99,0.39c-0.22-0.09-0.42-0.23-0.59-0.4c-0.34-0.34-0.53-0.8-0.53-1.29V82.8
					c0-1,0.82-1.82,1.82-1.82h7.32c0,0,0,0,0.01,0c0.74,0,1.39,0.44,1.68,1.12s0.13,1.46-0.39,1.99l-2.19,2.19l2.71,2.71
					c5.17,5.17,5.17,13.58,0,18.75C428.68,110.25,425.35,111.63,421.8,111.63z M392.68,83.57c-0.39,0-0.77,0.15-1.06,0.44
					c-0.28,0.28-0.44,0.66-0.44,1.06c0,0.4,0.16,0.78,0.44,1.06l21.22,21.22c2.39,2.39,5.58,3.71,8.97,3.71
					c3.39,0,6.58-1.32,8.97-3.71c4.95-4.94,4.95-12.99,0-17.94l-3.12-3.12l2.6-2.6c0.36-0.36,0.47-0.89,0.27-1.36
					c-0.19-0.47-0.65-0.77-1.15-0.77c0,0,0,0-0.01,0h-7.32c-0.69,0-1.25,0.56-1.25,1.25v7.32c0,0.34,0.13,0.65,0.36,0.88
					c0.12,0.12,0.25,0.21,0.41,0.27c0.46,0.19,1,0.09,1.36-0.27l2.6-2.6l3.12,3.12c3.77,3.77,3.77,9.92,0,13.69
					c-3.78,3.77-9.92,3.77-13.69,0l-21.22-21.22C393.45,83.71,393.07,83.57,392.68,83.57z"/>
			</g>
			<g>
				<path class="st12" d="M373.5,67.97l2.91,2.91l-2.4,2.4c-0.44,0.44-0.57,1.1-0.33,1.67c0.24,0.57,0.8,0.95,1.42,0.95l7.33,0
					c0.85,0,1.53-0.69,1.53-1.53v-7.33c0-0.41-0.17-0.8-0.45-1.08c-0.14-0.14-0.31-0.25-0.5-0.33c-0.57-0.24-1.23-0.11-1.67,0.33
					l-2.4,2.4l-2.91-2.91c-3.66-3.66-3.66-9.62,0-13.29s9.62-3.66,13.29,0l21.21,21.21c0.7,0.7,1.83,0.7,2.53,0s0.7-1.83,0-2.53
					l-21.21-21.21c-5.06-5.06-13.29-5.06-18.35,0S368.45,62.92,373.5,67.97z"/>
				<path class="st12" d="M375.11,76.19c-0.74,0-1.4-0.44-1.68-1.13c-0.28-0.68-0.13-1.46,0.39-1.99l2.2-2.19l-2.71-2.71
					c-5.17-5.17-5.17-13.58,0-18.75c5.17-5.17,13.58-5.17,18.75,0l21.22,21.22c0.81,0.81,0.81,2.13,0,2.94
					c-0.81,0.81-2.13,0.81-2.94,0l-21.22-21.22c-3.55-3.56-9.33-3.55-12.88,0c-1.72,1.72-2.66,4.01-2.66,6.44
					c0,2.44,0.95,4.72,2.66,6.44l2.71,2.71l2.19-2.19c0.52-0.52,1.3-0.68,1.99-0.4c0.23,0.1,0.43,0.23,0.59,0.4
					c0.35,0.35,0.53,0.8,0.53,1.29v7.32c0,0.48-0.19,0.94-0.53,1.28c-0.35,0.35-0.8,0.54-1.29,0.54L375.11,76.19z M382.68,46.12
					c-3.25,0-6.5,1.23-8.97,3.71c-4.94,4.95-4.94,12.99,0,17.94l3.12,3.12l-2.6,2.6c-0.36,0.36-0.46,0.89-0.27,1.36
					c0.2,0.47,0.65,0.77,1.15,0.77l7.32,0c0.33,0,0.65-0.13,0.88-0.37c0.24-0.23,0.36-0.55,0.36-0.88v-7.32
					c0-0.33-0.13-0.65-0.37-0.88c-0.11-0.12-0.25-0.21-0.41-0.27c-0.46-0.19-1-0.09-1.36,0.27l-2.6,2.6l-3.12-3.12
					c-1.82-1.82-2.83-4.26-2.83-6.84s1.01-5.02,2.83-6.85c3.77-3.78,9.92-3.77,13.69,0l21.22,21.22c0.58,0.59,1.54,0.59,2.12,0
					c0.59-0.58,0.59-1.54,0-2.12l-21.21-21.22C389.18,47.36,385.93,46.12,382.68,46.12z"/>
			</g>
		</g>
	</g>
</g>
</svg>
