<?xml version="1.0" standalone="no"?>
<!DOCTYPE svg PUBLIC "-//W3C//DTD SVG 20010904//EN"
 "http://www.w3.org/TR/2001/REC-SVG-20010904/DTD/svg10.dtd">
<svg version="1.0" xmlns="http://www.w3.org/2000/svg"
 width="1366.000000pt" height="768.000000pt" viewBox="0 0 1366.000000 768.000000"
 preserveAspectRatio="xMidYMid meet">
<metadata>
Created by potrace 1.16, written by Peter Selinger 2001-2019
</metadata>
<g transform="translate(0.000000,768.000000) scale(0.100000,-0.100000)"
fill="#000000" stroke="none">
<path d="M2442 3888 l3 -2113 433 -3 432 -2 0 890 0 890 270 0 270 0 0 400 0
400 -267 2 -268 3 0 400 0 400 303 3 302 2 0 420 0 420 -740 0 -740 0 2 -2112z"/>
<path d="M4040 3885 l0 -2115 755 0 755 0 0 425 0 425 -320 0 -320 0 0 465 0
465 270 0 270 0 0 400 0 400 -270 0 -270 0 0 405 0 405 290 0 290 0 0 420 0
420 -725 0 -725 0 0 -2115z"/>
<path d="M5520 5984 c0 -19 487 -4123 496 -4176 l6 -38 654 0 c515 0 655 3
659 12 2 7 101 947 220 2088 119 1141 218 2087 221 2103 l6 27 -461 0 c-254 0
-461 -2 -461 -5 0 -3 -22 -303 -50 -667 -60 -800 -92 -1279 -120 -1778 -12
-206 -24 -388 -28 -405 -5 -19 -12 52 -20 190 -15 258 -62 908 -97 1355 -43
534 -105 1264 -111 1288 l-4 22 -455 0 c-407 0 -455 -2 -455 -16z"/>
<path d="M7840 3885 l0 -2115 755 0 755 0 0 425 0 425 -320 0 -320 0 0 465 0
465 270 0 270 0 0 400 0 400 -270 0 -270 0 0 405 0 405 290 0 290 0 0 420 0
420 -725 0 -725 0 0 -2115z"/>
<path d="M9512 3888 l3 -2113 433 -3 432 -2 0 956 0 957 63 -5 c74 -6 132 -31
155 -66 43 -66 45 -105 49 -995 l4 -847 402 2 402 3 3 535 c3 641 -10 1160
-32 1240 -24 86 -86 199 -145 263 -43 46 -75 68 -155 108 -55 27 -107 49 -113
49 -7 0 -13 3 -13 8 0 4 27 13 60 19 143 27 264 113 314 223 104 230 107 961
6 1270 -65 196 -189 352 -335 421 -145 69 -270 80 -953 86 l-582 5 2 -2114z
m1032 1362 c90 -43 111 -140 103 -490 -6 -267 -17 -328 -65 -371 -31 -28 -104
-49 -167 -49 l-35 0 0 471 0 472 60 -6 c33 -3 80 -15 104 -27z"/>
</g>
</svg>
